<?xml version="1.0" encoding="UTF-8"?>
<svg width="400px" height="400px" viewBox="0 0 400 400" version="1.1" xmlns="http://www.w3.org/2000/svg" xmlns:xlink="http://www.w3.org/1999/xlink">
    <title>编组</title>
    <defs>
        <rect id="path-1" x="0" y="0" width="400" height="400"></rect>
    </defs>
    <g id="杂乱的图片" stroke="none" stroke-width="1" fill="none" fill-rule="evenodd">
        <g id="画板" transform="translate(-273.000000, -134.000000)">
            <g id="编组" transform="translate(473.000000, 334.000000) scale(-1, 1) translate(-473.000000, -334.000000) translate(273.000000, 134.000000)">
                <mask id="mask-2" fill="white">
                    <use xlink:href="#path-1"></use>
                </mask>
                <g id="矩形"></g>
                <g mask="url(#mask-2)">
                    <g transform="translate(55.600526, 0.000535)">
                        <g opacity="0.1" transform="translate(36.169478, 376.589478)">
                            <g fill="#2B2B2B" fill-rule="nonzero" id="路径">
                                <path d="M179.220001,13.4299999 C179.220001,13.4299999 98.3300009,0 98.3300009,0 C98.3300009,0 0,10.3 0,10.3 C0,10.3 76.1400003,23.4099998 76.1400003,23.4099998 C76.1400003,23.4099998 179.220001,13.4299999 179.220001,13.4299999 Z"></path>
                            </g>
                        </g>
                        <g transform="translate(91.487166, -0.000000)">
                            <g transform="translate(59.651638, 16.719866)" fill="#DFBCA4" fill-rule="nonzero" id="路径">
                                <path d="M39.6094164,105.66915 C39.6094164,105.66915 75.2007903,91.4792617 75.2007903,91.4792617 C75.2007903,91.4792617 51.1395375,14.9798787 51.1395375,14.9798787 C51.1395375,14.9798787 41.7694393,10.229917 41.7694393,10.229917 C41.7694393,10.229917 32.1893383,5.61995361 32.1893383,5.61995361 C32.1893383,5.61995361 17.6391841,0 17.6391841,0 C17.6391841,0 6.68906974,16.4198696 6.68906974,16.4198696 C6.68906974,16.4198696 4.46004614,15.2698773 4.46004614,15.2698773 C4.46004614,15.2698773 0,24.4898023 0,24.4898023 C0,24.4898023 21.0992216,112.219096 21.0992216,112.219096 C21.0992216,112.219096 39.6094164,105.66915 39.6094164,105.66915 Z"></path>
                            </g>
                            <g transform="translate(57.770619, 41.349665)" fill="#C3977A" fill-rule="nonzero" id="路径">
                                <path d="M1.95002038,0 C1.95002038,0 22.980242,87.5892937 22.980242,87.5892937 C22.980242,87.5892937 19.9602106,90.8392675 19.9602106,90.8392675 C19.9602106,90.8392675 11.9601259,91.9192568 11.9601259,91.9192568 C11.9601259,91.9192568 6.34006656,84.9293153 6.34006656,84.9293153 C6.34006656,84.9293153 2.38102468,74.9193939 2.38102468,74.9193939 C2.38102468,74.9193939 0,48.5496074 0,48.5496074 C0,48.5496074 1.95002038,0 1.95002038,0 Z"></path>
                            </g>
                            <g fill-rule="nonzero" id="路径">
                                <g transform="translate(32.110347, 41.350668)" fill="#C3977A">
                                    <path d="M27.6102909,0 C27.6102909,0 48.6405125,87.5882943 48.6405125,87.5882943 C48.6405125,87.5882943 45.6204802,90.8382681 45.6204802,90.8382681 C38.6274074,91.785259 31.6333336,92.7322538 24.6402596,93.6792448 C16.4271729,68.3874489 8.21308599,43.0956526 0,17.8028559 C9.20309716,11.8689038 18.4071938,5.93495351 27.6102909,0 Z"></path>
                                </g>
                                <g transform="translate(59.651638, 16.719866)" fill="#DFBCA4">
                                    <path d="M39.6094164,105.66915 C39.6094164,105.66915 75.2007903,91.4792617 75.2007903,91.4792617 C75.2007903,91.4792617 51.1395375,14.9798787 51.1395375,14.9798787 C51.1395375,14.9798787 41.7694393,10.229917 41.7694393,10.229917 C41.7694393,10.229917 32.1893383,5.61995361 32.1893383,5.61995361 C32.1893383,5.61995361 17.6391841,0 17.6391841,0 C17.6391841,0 6.68906974,16.4198696 6.68906974,16.4198696 C6.68906974,16.4198696 4.46004614,15.2698773 4.46004614,15.2698773 C4.46004614,15.2698773 0,24.4898023 0,24.4898023 C0,24.4898023 21.0992216,112.219096 21.0992216,112.219096 C21.0992216,112.219096 39.6094164,105.66915 39.6094164,105.66915 Z"></path>
                                </g>
                                <g transform="translate(98.470041, 81.109344)" fill="#8A6651">
                                    <path d="M4.97205258,0 C4.97205258,0 3.75003968,5.25995781 3.75003968,5.25995781 C3.75003968,5.25995781 0,1.51998784 0,1.51998784 C0,1.51998784 4.97205258,0 4.97205258,0 Z"></path>
                                </g>
                                <g transform="translate(68.940737, 0.000000)" fill="#E8EF78">
                                    <path d="M41.9204404,31.6997451 C41.9204404,31.6997451 36.9503887,17.5098591 36.9503887,17.5098591 C36.9503887,17.5098591 2.23002307,0 2.23002307,0 C2.23002307,0 0,16.9298639 0,16.9298639 C0,16.9298639 8.35008752,16.7198655 8.35008752,16.7198655 C8.35008752,16.7198655 22.8992407,22.33982 22.8992407,22.33982 C22.8992407,22.33982 32.4803422,26.9497834 32.4803422,26.9497834 C32.4803422,26.9497834 41.9204404,31.6997451 41.9204404,31.6997451 Z"></path>
                                </g>
                                <g transform="translate(4.040051, 0.000000)" fill="#D9E253">
                                    <path d="M67.1307074,0 C67.1307074,0 17.6401855,16.4298678 17.6401855,16.4298678 C17.6401855,16.4298678 4.61004925,51.079588 4.61004925,51.079588 C4.61004925,51.079588 0,60.5895115 0,60.5895115 C0,60.5895115 13.9001463,55.7595505 13.9001463,55.7595505 C13.9001463,55.7595505 27.7302921,51.1495871 27.7302921,51.1495871 C27.7302921,51.1495871 41.5604384,46.249627 41.5604384,46.249627 C41.5604384,46.249627 55.6805877,41.3496669 55.6805877,41.3496669 C55.6805877,41.3496669 62.3006565,33.1397328 62.3006565,33.1397328 C62.3006565,33.1397328 73.2507728,16.7198654 73.2507728,16.7198654 C73.2507728,16.7198654 67.1307074,0 67.1307074,0 Z"></path>
                                </g>
                                <g transform="translate(0.000000, 41.349669)" fill="#B8C645">
                                    <path d="M59.7206313,0 C59.7206313,0 45.9604859,4.82995906 45.9604859,4.82995906 C45.9604859,4.82995906 31.7703357,9.7999202 31.7703357,9.7999202 C31.7703357,9.7999202 17.9401898,14.4098817 17.9401898,14.4098817 C17.9401898,14.4098817 4.04004354,19.2398427 4.04004354,19.2398427 C4.04004354,19.2398427 0,87.0192948 0,87.0192948 C0,87.0192948 42.773452,97.3842129 42.773452,97.3842129 C42.773452,97.3842129 60.6156392,47.647614 60.6156392,47.647614 C60.6156392,47.647614 55.1805824,9.50992162 55.1805824,9.50992162 C55.1805824,9.50992162 59.7206313,0 59.7206313,0 Z"></path>
                                </g>
                            </g>
                            <g transform="translate(69.731746, 122.389010)" fill="#8A6651" fill-rule="nonzero" id="路径">
                                <path d="M0,10.8799124 C0,10.8799124 11.5191216,31.8397434 11.5191216,31.8397434 C11.5191216,31.8397434 29.5283114,0 29.5283114,0 C29.5283114,0 11.0191163,6.54994736 11.0191163,6.54994736 C11.0191163,6.54994736 0,10.8799124 0,10.8799124 Z"></path>
                            </g>
                            <g transform="translate(70.450741, 44.659639)" fill-rule="nonzero" id="路径">
                                <g transform="translate(22.040235, 3.029977)" fill="#C3977A">
                                    <path d="M0,3.74996976 C0,3.74996976 7.21007586,23.3398119 7.21007586,23.3398119 C7.21007586,23.3398119 20.2402133,0 20.2402133,0 C20.2402133,0 0,3.74996976 0,3.74996976 Z"></path>
                                </g>
                                <g transform="translate(0.000009, 7.639936)" fill="#C3977A">
                                    <path d="M17.2201819,0 C17.2201819,0 0,12.7498972 0,12.7498972 C0,12.7498972 14.6201545,14.619882 14.6201545,14.619882 C14.6201545,14.619882 28.0202961,30.3297553 28.0202961,30.3297553 C28.0202961,30.3297553 17.2201819,0 17.2201819,0 Z"></path>
                                </g>
                                <g transform="translate(0.000000, 7.639938)" fill="#B8C645">
                                    <path d="M17.220181,0 C17.220181,0 1.08001084,7.12994249 1.08001084,7.12994249 C1.08001084,7.12994249 0,12.7498972 0,12.7498972 C0,12.7498972 17.220181,0 17.220181,0 Z"></path>
                                </g>
                                <g transform="translate(22.040235, 0.000000)" fill="#B8C645">
                                    <path d="M0,6.77994553 C0,6.77994553 18.6601967,0 18.6601967,0 C18.6601967,0 20.2402133,3.02997565 20.2402133,3.02997565 C20.2402133,3.02997565 0,6.77994553 0,6.77994553 Z"></path>
                                </g>
                            </g>
                            <g transform="translate(87.670933, 51.439589)" fill="#E8C9B6" fill-rule="nonzero" id="路径">
                                <path d="M0,0.859993674 C0,0.859993674 10.7991142,31.189749 10.7991142,31.189749 C10.7991142,31.189749 15.7701668,29.6697608 15.7701668,29.6697608 C15.7701668,29.6697608 12.0851275,19.6848417 12.0851275,19.6848417 C12.0851275,19.6848417 4.81905108,0 4.81905108,0 C4.81905108,0 0,0.859993674 0,0.859993674 Z"></path>
                            </g>
                        </g>
                        <g transform="translate(177.787004, 89.539204)">
                            <g fill="#99C26C" fill-rule="nonzero" id="路径">
                                <path d="M33.6411444,0 C33.6411444,0 19.0110815,10.1598001 19.0110815,10.1598001 C19.0110815,10.1598001 0,10.6597902 0,10.6597902 C0,10.6597902 20.531088,15.7796894 20.531088,15.7796894 C20.531088,15.7796894 33.6411444,0 33.6411444,0 Z"></path>
                            </g>
                            <g transform="translate(0.000000, 0.000002)" fill="#5A753C" fill-rule="nonzero" id="路径">
                                <path d="M33.6411444,0 C33.6411444,0 27.661119,2.15995737 27.661119,2.15995737 C27.661119,2.15995737 19.370083,3.52993055 19.370083,3.52993055 C19.370083,3.52993055 14.04006,5.32989511 14.04006,5.32989511 C14.04006,5.32989511 7.78103285,8.92982422 7.78103285,8.92982422 C7.78103285,8.92982422 0,10.6597902 0,10.6597902 C0,10.6597902 19.0110815,10.1598001 19.0110815,10.1598001 C19.0110815,10.1598001 33.6411444,0 33.6411444,0 Z"></path>
                            </g>
                        </g>
                        <g transform="translate(77.948723, 168.630126)" fill="#738D56" fill-rule="nonzero" id="路径">
                            <path d="M22.1902612,0 C22.1902612,0 0,45.9596668 0,45.9596668 C0,45.9596668 36.0204244,35.8797398 36.0204244,35.8797398 C36.0204244,35.8797398 22.1902612,0 22.1902612,0 Z"></path>
                        </g>
                        <g transform="translate(77.949088, 208.320119)" fill="#99C26C" fill-rule="nonzero" id="路径">
                            <path d="M22.3304093,0 C22.3304093,0 11.890218,44.3797951 11.890218,44.3797951 C11.890218,44.3797951 4.16007611,32.3398501 4.16007611,32.3398501 C4.16007611,32.3398501 4.9700909,22.1988975 4.9700909,22.1988975 C4.9700909,22.1988975 0,6.26997136 0,6.26997136 C0,6.26997136 22.3304093,0 22.3304093,0 Z"></path>
                        </g>
                        <g transform="translate(58.739299, 230.510309)">
                            <g transform="translate(11.320082, 0.000000)" fill="#DFBCA4" fill-rule="nonzero" id="路径">
                                <path d="M19.7801451,22.1897419 C19.7801451,22.1897419 10.7400788,23.1197313 10.7400788,23.1197313 C10.7400788,23.1197313 0,20.0397664 0,20.0397664 C0,20.0397664 12.8700943,0 12.8700943,0 C12.8700943,0 19.7801451,22.1897419 19.7801451,22.1897419 Z"></path>
                            </g>
                            <g transform="translate(0.000000, 7.479899)" fill="#C3977A" fill-rule="nonzero" id="路径">
                                <path d="M22.0601605,15.6398171 C22.0601605,15.6398171 3.17002274,0 3.17002274,0 C3.17002274,0 0,12.3798553 0,12.3798553 C0,12.3798553 8.35006062,17.1297995 8.35006062,17.1297995 C8.35006062,17.1297995 22.0601605,15.6398171 22.0601605,15.6398171 Z"></path>
                            </g>
                        </g>
                        <g transform="translate(119.589472, 350.879473)">
                            <g transform="translate(0.000000, 0.499990)" fill="#DFBCA4" fill-rule="nonzero" id="路径">
                                <path d="M15.1199999,0 C15.1199999,0 12.2509999,2.13300133 12.2509999,2.13300133 C12.2509999,2.13300133 0,11.2400007 0,11.2400007 C0,11.2400007 14.9099998,40.4900017 14.9099998,40.4900017 C14.9099998,40.4900017 24.4899998,8.57000065 24.4899998,8.57000065 C24.4899998,8.57000065 15.1199999,0 15.1199999,0 Z"></path>
                            </g>
                            <g transform="translate(14.910004, 31.039980)" fill="#C3977A" fill-rule="nonzero" id="路径">
                                <path d="M0,9.94999981 C0,9.94999981 16.9899998,9.57999992 16.9899998,9.57999992 C16.9899998,9.57999992 2.94999981,0 2.94999981,0 C2.94999981,0 0,9.94999981 0,9.94999981 Z"></path>
                            </g>
                            <g transform="translate(11.450006, 0.000000)" fill="#8A6651" fill-rule="nonzero" id="路径">
                                <path d="M13.04,9.06999969 C13.04,9.06999969 0,3.30999982 0,3.30999982 C0,3.30999982 3.01999998,0 3.01999998,0 C3.01999998,0 9.16100001,5.5589999 9.16100001,5.5589999 C9.16100001,5.5589999 13.04,9.06999969 13.04,9.06999969 Z"></path>
                            </g>
                        </g>
                        <g transform="translate(53.459474, 291.159474)">
                            <g transform="translate(0.000001, 0.000000)" fill="#DFBCA4" fill-rule="nonzero" id="路径">
                                <path d="M20.3099999,4.75999928 C20.3099999,4.75999928 7.12999964,0 7.12999964,0 C7.12999964,0 0,39.2599983 0,39.2599983 C0,39.2599983 29.8199997,13.3999991 29.8199997,13.3999991 C29.8199997,13.3999991 20.3099999,4.75999928 20.3099999,4.75999928 Z"></path>
                            </g>
                            <g transform="translate(0.000000, 31.910006)" fill="#C3977A" fill-rule="nonzero" id="路径">
                                <path d="M8.5,0 C8.5,0 11.3800001,16.6399994 11.3800001,16.6399994 C11.3800001,16.6399994 0,7.34999967 0,7.34999967 C0,7.34999967 8.5,0 8.5,0 Z"></path>
                            </g>
                            <g transform="translate(20.310000, 4.759978)" fill="#8A6651" fill-rule="nonzero" id="路径">
                                <path d="M0,0 C0,0 3.10000014,14.2600002 3.10000014,14.2600002 C3.10000014,14.2600002 9.51000023,8.6400001 9.51000023,8.6400001 C9.51000023,8.6400001 3.50100017,3.18100023 3.50100017,3.18100023 C3.50100017,3.18100023 0,0 0,0 Z"></path>
                            </g>
                        </g>
                        <g transform="translate(168.777685, 56.618842)">
                            <g transform="translate(26.620134, 0.000000)" fill="#2B2B2B" fill-rule="nonzero" id="路径">
                                <path d="M4.0000209,0.000444616322 C1.7910094,0.000444616322 0,1.79141294 0,4.0003739 C0,6.20933505 1.7910094,8.00031851 4.0000209,8.00031851 C6.22903234,8.00630307 8.05004187,6.22833453 8.09904233,4.0003739 C8.10004232,1.79141294 6.31003285,0.00144452622 4.10102142,0.000444616322 C4.06602124,0.000444616322 4.03402107,-0.000555770403 4.0000209,0.000444616322 Z"></path>
                            </g>
                            <g transform="translate(0.000000, 9.580272)" fill="#2B2B2B" fill-rule="nonzero" id="路径">
                                <path d="M4.11002115,0 C1.85100942,0.0269994745 0.0270000902,1.85196712 0,4.11092741 C0.0480001074,6.34188799 1.87800951,8.12185659 4.11002115,8.11090781 C6.31903248,8.11090781 8.11010193,6.31988854 8.11010193,4.11092741 C8.12204179,1.87896683 6.34103267,0.0489989227 4.11002115,0 Z"></path>
                            </g>
                        </g>
                        <g transform="translate(100.138481, 141.514916)">
                            <g fill="#5A753C" fill-rule="nonzero" id="路径">
                                <path d="M0,27.1138225 C0,27.1138225 21.8902852,83.5234523 21.8902852,83.5234523 C21.8902852,83.5234523 35.2204571,87.6244252 35.2204571,87.6244252 C49.2576389,86.9764307 73.95796,88.1804213 73.95796,88.1804213 C73.95796,88.1804213 70.778918,20.5548655 70.778918,20.5548655 C70.778918,20.5548655 61.3717963,2.67498169 61.3717963,2.67498169 C61.3717963,2.67498169 21.3272763,0 21.3272763,0 C21.3272763,0 0,27.1138225 0,27.1138225 Z"></path>
                            </g>
                            <g transform="translate(21.890280, 83.525464)" fill="#99C26C" fill-rule="nonzero" id="路径">
                                <path d="M51.9906741,3.47797687 C51.9906741,3.47797687 0,0 0,0 C0,0 3.25004216,8.63794311 3.25004216,8.63794311 C3.25004216,8.63794311 22.4102901,22.3988523 22.4102901,22.3988523 C22.4102901,22.3988523 54.4607055,23.837843 54.4607055,23.837843 C54.4607055,23.837843 54.2107023,21.6228583 54.2107023,21.6228583 C54.2107023,21.6228583 51.9906741,3.47797687 51.9906741,3.47797687 Z"></path>
                            </g>
                        </g>
                        <g transform="translate(99.339473, 233.679457)">
                            <g fill="#53AF8A" fill-rule="nonzero" id="路径">
                                <path d="M25.9400005,0 C25.9400005,0 0,33.2800007 0,33.2800007 C0,33.2800007 34,38.9710007 34,38.9710007 C34,38.9710007 77.1500015,15.2000008 77.1500015,15.2000008 C77.1500015,15.2000008 25.9400005,0 25.9400005,0 Z"></path>
                            </g>
                            <g transform="translate(0.000000, 15.200024)" fill="#3E8F6E" fill-rule="nonzero" id="路径">
                                <path d="M0,18.079998 C0,18.079998 15.6300011,41.2699986 15.6300011,41.2699986 C15.6300011,41.2699986 7.42000008,65.4799976 7.42000008,65.4799976 C7.42000008,65.4799976 50.0700006,92.2699966 50.0700006,92.2699966 C50.0700006,92.2699966 77.1500015,0 77.1500015,0 C77.1500015,0 0,18.079998 0,18.079998 Z"></path>
                            </g>
                        </g>
                        <g transform="translate(73.769477, 290.149451)" fill="#35785D" fill-rule="nonzero" id="路径">
                            <path d="M41.1999998,0 C41.1999998,0 0,5.77000237 0,5.77000237 C23.4369993,27.1130013 46.8730001,48.4560013 70.3100014,69.8000031 C70.3100014,69.8000031 75.6399994,51 75.6399994,51 C75.6399994,51 41.1999998,0 41.1999998,0 Z"></path>
                        </g>
                        <g transform="translate(95.527338, 17.509962)">
                            <g transform="translate(97.170383, 0.000000)" fill="#35785D" fill-rule="nonzero" id="路径">
                                <path d="M14.1900557,4.60990074 C14.1900557,4.60990074 4.68001834,0 4.68001834,0 C4.68001834,0 0,9.50979521 0,9.50979521 C0,9.50979521 9.65003803,14.1896944 9.65003803,14.1896944 C9.65003803,14.1896944 14.1900557,4.60990074 14.1900557,4.60990074 Z"></path>
                            </g>
                            <g transform="translate(83.191316, 4.829896)" fill="#53AF8A" fill-rule="nonzero" id="路径">
                                <path d="M14.1890558,4.60990074 C14.1890558,4.60990074 4.6090182,0 4.6090182,0 C4.6090182,0 0,9.49979544 0,9.49979544 C0,9.49979544 9.66003806,14.1896944 9.66003806,14.1896944 C9.66003806,14.1896944 14.1890558,4.60990074 14.1890558,4.60990074 Z"></path>
                            </g>
                            <g transform="translate(69.360275, 9.509798)" fill="#35785D" fill-rule="nonzero" id="路径">
                                <path d="M14.1890558,4.67989917 C14.1890558,4.67989917 4.54001768,0 4.54001768,0 C4.54001768,0 0,9.57979364 0,9.57979364 C0,9.57979364 9.50903744,14.1896944 9.50903744,14.1896944 C9.50903744,14.1896944 14.1890558,4.67989917 14.1890558,4.67989917 Z"></path>
                            </g>
                            <g transform="translate(55.390219, 14.479688)" fill="#53AF8A" fill-rule="nonzero" id="路径">
                                <path d="M14.1900557,4.60990074 C14.1900557,4.60990074 4.68001834,0 4.68001834,0 C4.68001834,0 0,9.57979364 0,9.57979364 C0,9.57979364 9.58003758,14.1896944 9.58003758,14.1896944 C9.58003758,14.1896944 14.1900557,4.60990074 14.1900557,4.60990074 Z"></path>
                            </g>
                            <g transform="translate(41.560158, 19.159588)" fill="#35785D" fill-rule="nonzero" id="路径">
                                <path d="M14.1200557,4.67989917 C14.1200557,4.67989917 4.54001792,0 4.54001792,0 C4.54001792,0 0,9.57979364 0,9.57979364 C0,9.57979364 9.58003782,14.1896944 9.58003782,14.1896944 C9.58003782,14.1896944 14.1200557,4.67989917 14.1200557,4.67989917 Z"></path>
                            </g>
                            <g transform="translate(27.730105, 23.989486)" fill="#53AF8A" fill-rule="nonzero" id="路径">
                                <path d="M14.1900557,4.67989917 C14.1900557,4.67989917 4.68001834,0 4.68001834,0 C4.68001834,0 0,9.64979231 0,9.64979231 C0,9.64979231 9.65003803,14.1896944 9.65003803,14.1896944 C9.65003803,14.1896944 14.1900557,4.67989917 14.1900557,4.67989917 Z"></path>
                            </g>
                            <g transform="translate(13.900049, 28.739384)" fill="#35785D" fill-rule="nonzero" id="路径">
                                <path d="M14.1900557,4.60990074 C14.1900557,4.60990074 4.54001768,0 4.54001768,0 C4.54001768,0 0,9.50979521 0,9.50979521 C0,9.50979521 9.58003758,14.1896944 9.58003758,14.1896944 C9.58003758,14.1896944 14.1900557,4.60990074 14.1900557,4.60990074 Z"></path>
                            </g>
                            <g transform="translate(0.000000, 33.569278)" fill="#53AF8A" fill-rule="nonzero" id="路径">
                                <path d="M14.1900557,4.60990074 C14.1900557,4.60990074 4.61001813,0 4.61001813,0 C4.61001813,0 0,9.50979521 0,9.50979521 C0,9.50979521 9.50003734,14.1896944 9.50003734,14.1896944 C9.50003734,14.1896944 14.1900557,4.60990074 14.1900557,4.60990074 Z"></path>
                            </g>
                        </g>
                        <g transform="translate(174.828022, 200.039238)" fill="#99C26C" fill-rule="nonzero" id="路径">
                            <path d="M0,12.4598846 C0,12.4598846 43.4403994,0 43.4403994,0 C43.4403994,0 47.5514372,3.74996525 47.5514372,3.74996525 C47.5514372,3.74996525 49.0614513,8.56992029 49.0614513,8.56992029 C49.0614513,8.56992029 1.66001509,48.8395476 1.66001509,48.8395476 C1.66001509,48.8395476 0,12.4598846 0,12.4598846 Z"></path>
                        </g>
                        <g transform="translate(133.198867, 183.189618)" fill="#738D56" fill-rule="nonzero" id="路径">
                            <path d="M40.3405648,1.14999454 C40.3405648,1.14999454 43.2906069,65.6896031 43.2906069,65.6896031 C43.2906069,65.6896031 0,0 0,0 C0,0 17.8612505,1.50999296 17.8612505,1.50999296 C17.8612505,1.50999296 40.3405648,1.14999454 40.3405648,1.14999454 Z"></path>
                        </g>
                        <g transform="translate(212.648562, 149.468888)" fill-rule="nonzero" id="路径">
                            <g transform="translate(5.620052, 34.579685)">
                                <g fill="#DFBCA4">
                                    <path d="M0,15.9898557 C0,15.9898557 6.84006476,8.92991938 6.84006476,8.92991938 C6.84006476,8.92991938 15.5601469,15.4198609 15.5601469,15.4198609 C15.5601469,15.4198609 25.0702365,0 25.0702365,0 C25.0702365,0 27.6602611,0 27.6602611,0 C27.6602611,0 23.1892191,20.5998138 23.1892191,20.5998138 C23.1892191,20.5998138 5.62005297,24.5597782 5.62005297,24.5597782 C5.62005297,24.5597782 0,15.9898557 0,15.9898557 Z"></path>
                                </g>
                                <g transform="translate(3.380034, 0.000004)" fill="#8A6651">
                                    <path d="M0,12.3898885 C0,12.3898885 19.8101875,20.5998148 19.8101875,20.5998148 C19.8101875,20.5998148 23.6302233,11.3098983 23.6302233,11.3098983 C23.6302233,11.3098983 24.28023,0 24.28023,0 C24.28023,0 21.6902054,0 21.6902054,0 C21.6902054,0 15.420146,7.84992942 15.420146,7.84992942 C15.420146,7.84992942 12.1801154,15.4198612 12.1801154,15.4198612 C12.1801154,15.4198612 8.07007639,10.5199054 8.07007639,10.5199054 C8.07007639,10.5199054 3.46003272,8.92991974 3.46003272,8.92991974 C3.46003272,8.92991974 0,12.3898885 0,12.3898885 Z"></path>
                                </g>
                            </g>
                            <g>
                                <g transform="translate(33.350308, 55.469490)" fill="#738D56">
                                    <path d="M3.46003272,0 C3.46003272,0 3.75003542,18.5798325 3.75003542,18.5798325 C3.75003542,18.5798325 0,18.5798325 0,18.5798325 C0,18.5798325 0.290002701,0 0.290002701,0 C0.290002701,0 3.46003272,0 3.46003272,0 Z"></path>
                                </g>
                                <g transform="translate(15.130131, 1.229977)" fill="#B8C645">
                                    <path d="M19.6601855,18.1498361 C19.6601855,18.1498361 21.1802003,0 21.1802003,0 C21.1802003,0 0,5.68994856 0,5.68994856 C0,5.68994856 11.9601131,18.1498361 11.9601131,18.1498361 C11.9601131,18.1498361 19.6601855,18.1498361 19.6601855,18.1498361 Z"></path>
                                </g>
                                <g transform="translate(0.000000, 13.539871)" fill="#B8C645">
                                    <path d="M27.090256,9.14991768 C27.090256,9.14991768 7.13006746,0 7.13006746,0 C7.13006746,0 0,18.009838 0,18.009838 C0,18.009838 27.090256,14.8398665 27.090256,14.8398665 C27.090256,14.8398665 27.090256,9.14991768 27.090256,9.14991768 Z"></path>
                                </g>
                                <g transform="translate(3.819028, 31.549705)" fill="#B8C645">
                                    <path d="M23.2712197,0 C23.2712197,0 0,5.32995238 0,5.32995238 C0,5.32995238 17.3601639,18.4498346 17.3601639,18.4498346 C17.3601639,18.4498346 26.8712541,3.02997291 26.8712541,3.02997291 C26.8712541,3.02997291 23.2712197,3.02997291 23.2712197,3.02997291 C23.2712197,3.02997291 23.2712197,0 23.2712197,0 Z"></path>
                                </g>
                                <g transform="translate(28.810251, 34.579678)" fill="#B8C645">
                                    <path d="M4.47104195,0 C4.47104195,0 0,20.6008142 0,20.6008142 C0,20.6008142 18.3011725,20.8908116 18.3011725,20.8908116 C18.3011725,20.8908116 9.87009287,0 9.87009287,0 C9.87009287,0 4.47104195,0 4.47104195,0 Z"></path>
                                </g>
                                <g transform="translate(42.361387, 30.259714)" fill="#B8C645">
                                    <path d="M0,4.31996078 C0,4.31996078 14.0391325,22.8997933 14.0391325,22.8997933 C14.0391325,22.8997933 25.7782433,11.519896 25.7782433,11.519896 C25.7782433,11.519896 0,0 0,0 C0,0 0,4.31996078 0,4.31996078 Z"></path>
                                </g>
                                <g transform="translate(42.360384, 18.949820)" fill="#B8C645">
                                    <path d="M0,8.85992032 C0,8.85992032 27.2202564,15.339862 27.2202564,15.339862 C27.2202564,15.339862 29.9602821,0 29.9602821,0 C29.9602821,0 0,5.32995215 0,5.32995215 C0,5.32995215 0,8.85992032 0,8.85992032 Z"></path>
                                </g>
                                <g transform="translate(37.170323, 0.000000)" fill="#B8C645">
                                    <path d="M5.1900486,21.7598042 C5.1900486,21.7598042 28.3792677,9.57991386 28.3792677,9.57991386 C28.3792677,9.57991386 12.6101186,0 12.6101186,0 C12.6101186,0 0,19.3798255 0,19.3798255 C0,19.3798255 5.1900486,19.3798255 5.1900486,19.3798255 C5.1900486,19.3798255 5.1900486,21.7598042 5.1900486,21.7598042 Z"></path>
                                </g>
                                <g transform="translate(27.089241, 19.379816)" fill="#5A753C">
                                    <path d="M15.2701447,15.1998629 C15.2701447,15.1998629 0,15.1998629 0,15.1998629 C0,15.1998629 0,0 0,0 C0,0 15.2701447,0 15.2701447,0 C15.2701447,0 15.2701447,15.1998629 15.2701447,15.1998629 Z"></path>
                                </g>
                                <g transform="translate(27.090248, 19.379816)" fill="#D9E253">
                                    <path d="M7.70007295,0 C7.70007295,0 0,7.63993108 0,7.63993108 C0,7.63993108 7.70007295,15.1998629 7.70007295,15.1998629 C7.70007295,15.1998629 15.2701447,7.63993108 15.2701447,7.63993108 C15.2701447,7.63993108 7.70007295,0 7.70007295,0 Z"></path>
                                </g>
                            </g>
                        </g>
                        <g transform="translate(73.266614, 41.210317)">
                            <g transform="translate(77.791882, 75.059302)" fill="#D9E253" fill-rule="nonzero" id="路径">
                                <path d="M0.580006894,0 C0.580006894,0 21.6802604,37.9597039 21.6802604,37.9597039 C21.6802604,37.9597039 37.8204542,67.77947 37.8204542,67.77947 C37.8204542,67.77947 0,68.4294665 0,68.4294665 C0,68.4294665 0.580006894,0 0.580006894,0 Z"></path>
                            </g>
                            <g transform="translate(0.000000, 9.649855)" fill="#D9E253" fill-rule="nonzero" id="路径">
                                <path d="M70.9508534,23.4098172 C70.9508534,23.4098172 26.8703237,117.769078 26.8703237,117.769078 C26.8703237,117.769078 0,103.72919 0,103.72919 C0,103.72919 18.2202202,77.5093936 18.2202202,77.5093936 C18.2202202,77.5093936 73.4008836,0 73.4008836,0 C73.4008836,0 70.9508534,23.4098172 70.9508534,23.4098172 Z"></path>
                            </g>
                            <g transform="translate(26.870314, 33.059642)" fill="#B8C645" fill-rule="nonzero" id="路径">
                                <path d="M44.0805316,0 C44.0805316,0 0,94.3592645 0,94.3592645 C0,94.3592645 33.0603987,108.919148 33.0603987,108.919148 C33.0603987,108.919148 36.8004434,71.669439 36.8004434,71.669439 C36.8004434,71.669439 43.2205206,43.2896613 43.2205206,43.2896613 C43.2205206,43.2896613 44.0805316,0 44.0805316,0 Z"></path>
                            </g>
                            <g transform="translate(59.931682, -0.000000)" fill-rule="nonzero" id="路径">
                                <g fill="#E8EF78">
                                    <path d="M13.4708298,9.64991834 C13.4708298,9.64991834 0,141.978779 0,141.978779 C0,141.978779 17.8621,143.488769 17.8621,143.488769 C17.8621,143.488769 18.4421357,75.0593558 18.4421357,75.0593558 C18.4421357,75.0593558 17.9421049,0 17.9421049,0 C17.9421049,0 13.4708298,9.64991834 13.4708298,9.64991834 Z"></path>
                                </g>
                                <g transform="translate(9.360569, 28.229761)" fill="#5A753C">
                                    <path d="M8.72053681,0 C8.72053681,0 1.66010208,4.82995877 1.66010208,4.82995877 C1.66010208,4.82995877 0,21.6898136 0,21.6898136 C0,21.6898136 8.8605453,15.7098646 8.8605453,15.7098646 C8.8605453,15.7098646 8.72053681,0 8.72053681,0 Z"></path>
                                </g>
                                <g transform="translate(8.139505, 43.939625)" fill="#99C26C">
                                    <path d="M10.0806207,0 C10.0806207,0 1.22107491,5.97994799 1.22107491,5.97994799 C1.22107491,5.97994799 0,18.2198423 0,18.2198423 C0,18.2198423 10.1506247,12.5998911 10.1506247,12.5998911 C10.1506247,12.5998911 10.0806207,0 10.0806207,0 Z"></path>
                                </g>
                                <g transform="translate(6.700415, 56.539516)" fill="#5A753C">
                                    <path d="M11.5907139,0 C11.5907139,0 1.44008874,5.61995144 1.44008874,5.61995144 C1.44008874,5.61995144 0,19.2398339 0,19.2398339 C0,19.2398339 11.6707188,12.7498901 11.6707188,12.7498901 C11.6707188,12.7498901 11.5907139,0 11.5907139,0 Z"></path>
                                </g>
                                <g transform="translate(5.190317, 69.289400)" fill="#99C26C">
                                    <path d="M13.180812,0 C13.180812,0 1.51009322,6.4899443 1.51009322,6.4899443 C1.51009322,6.4899443 0,21.5398152 0,21.5398152 C0,21.5398152 13.180812,13.97988 13.180812,13.97988 C13.180812,13.97988 13.180812,0 13.180812,0 Z"></path>
                                </g>
                                <g transform="translate(3.740222, 83.269290)" fill="#5A753C">
                                    <path d="M14.6309011,0 C14.6309011,0 1.45008958,7.5599343 1.45008958,7.5599343 C1.45008958,7.5599343 0,21.4598141 0,21.4598141 C0,21.4598141 14.5508962,13.3998841 14.5508962,13.3998841 C14.5508962,13.3998841 14.6309011,0 14.6309011,0 Z"></path>
                                </g>
                            </g>
                        </g>
                        <g transform="translate(18.144754, 172.143739) rotate(0.954194) translate(-18.144754, -172.143739) translate(0.356872, 150.565836)" fill-rule="nonzero" id="路径">
                            <g transform="translate(18.237610, 0.000000)" fill="#3E8F6E">
                                <path d="M17.3381543,33.0127449 C17.3381543,33.0127449 9.32903472,0 9.32903472,0 C9.32903472,0 0,21.4994544 0,21.4994544 C0,21.4994544 17.3381543,33.0127449 17.3381543,33.0127449 Z"></path>
                            </g>
                            <g transform="translate(0.000000, 5.718533)" fill="#53AF8A">
                                <path d="M18.2376089,15.7809222 C18.2376089,15.7809222 0,0 0,0 C0,0 7.02165649,32.6745692 7.02165649,32.6745692 C7.02165649,32.6745692 18.2376089,15.7809222 18.2376089,15.7809222 Z"></path>
                            </g>
                            <g transform="translate(18.237610, 21.499462)" fill="#738D56">
                                <path d="M14.6839824,17.4052615 C14.6839824,17.4052615 0,0 0,0 C0,0 0.650000077,8.78999986 0.650000077,8.78999986 C0.650000077,8.78999986 3.03000012,15.3499995 3.03000012,15.3499995 C3.03000012,15.3499995 14.6839824,17.4052615 14.6839824,17.4052615 Z"></path>
                            </g>
                            <g transform="translate(11.802181, 21.499455)" fill="#99C26C">
                                <path d="M6.43542915,0 C6.43542915,0 0,21.6563514 0,21.6563514 C0,21.6563514 9.46542904,15.3499997 9.46542904,15.3499997 C9.46542904,15.3499997 6.43542915,0 6.43542915,0 Z"></path>
                            </g>
                        </g>
                        <g transform="translate(257.957913, 27.456915) rotate(0.550488) translate(-257.957913, -27.456915) translate(237.834755, 4.534211)" fill-rule="nonzero" id="路径">
                            <g transform="translate(21.065767, 0.000000)" fill="#3E8F6E">
                                <path d="M19.180551,27.1376892 C19.180551,27.1376892 3.28560311,0 3.28560311,0 C3.28560311,0 0,23.8075423 0,23.8075423 C0,23.8075423 19.180551,27.1376892 19.180551,27.1376892 Z"></path>
                            </g>
                            <g transform="translate(0.000000, 14.408607)" fill="#53AF8A">
                                <path d="M21.0667519,9.39893408 C21.0667519,9.39893408 0,0 0,0 C0,0 14.5821036,28.2434927 14.5821036,28.2434927 C14.5821036,28.2434927 21.0667519,9.39893408 21.0667519,9.39893408 Z"></path>
                            </g>
                            <g transform="translate(21.065744, 23.807541)" fill="#738D56">
                                <path d="M18.8432764,10.2104826 C18.8432764,10.2104826 0,0 0,0 C0,0 2.94899994,8 2.94899994,8 C2.94899994,8 8.06900017,13.3999999 8.06900017,13.3999999 C8.06900017,13.3999999 18.8432764,10.2104826 18.8432764,10.2104826 Z"></path>
                            </g>
                            <g transform="translate(20.673381, 23.807540)" fill="#99C26C">
                                <path d="M0.393384942,0 C0.393384942,0 0,22.037868 0,22.037868 C0,22.037868 8.46138543,13.4 8.46138543,13.4 C8.46138543,13.4 0.393384942,0 0.393384942,0 Z"></path>
                            </g>
                        </g>
                        <g transform="translate(43.274957, 5.629689)" fill-rule="nonzero" id="路径">
                            <g fill="#3E8F6E">
                                <path d="M0,28.184988 C0,28.184988 16.3891225,0 16.3891225,0 C16.3891225,0 21.2445192,24.1197767 21.2445192,24.1197767 C21.2445192,24.1197767 0,28.184988 0,28.184988 Z"></path>
                            </g>
                            <g transform="translate(21.244515, 17.204183)" fill="#53AF8A">
                                <path d="M0,6.91559505 C0,6.91559505 23.7134161,0 23.7134161,0 C23.7134161,0 7.37487316,27.3934536 7.37487316,27.3934536 C7.37487316,27.3934536 0,6.91559505 0,6.91559505 Z"></path>
                            </g>
                            <g transform="translate(0.403759, 24.119777)" fill="#738D56">
                                <path d="M0,12.3974547 C0,12.3974547 20.8407602,0 20.8407602,0 C20.8407602,0 16.7307601,9.29999971 16.7307601,9.29999971 C16.7307601,9.29999971 12.7007601,13.3999996 12.7007601,13.3999996 C12.7007601,13.3999996 0,12.3974547 0,12.3974547 Z"></path>
                            </g>
                            <g transform="translate(13.104517, 24.119776)" fill="#99C26C">
                                <path d="M8.13999987,0 C8.13999987,0 7.85310221,24.2968082 7.85310221,24.2968082 C7.85310221,24.2968082 0,13.3999997 0,13.3999997 C0,13.3999997 8.13999987,0 8.13999987,0 Z"></path>
                            </g>
                        </g>
                    </g>
                </g>
            </g>
        </g>
    </g>
</svg>